<svg xmlns="http://www.w3.org/2000/svg" viewBox="0 0 66 58" role="img" aria-label="Marchio Gabriele Floris">
  <rect x="1" y="1" width="64" height="56" rx="18" fill="#0b1120"/>
  <path d="M17 41C10 41 5 37 5 31s4-10 10-11C17 12 23 7 30 7s13 4 16 11h2c7 0 12 5 12 11s-5 12-12 12H17Z" fill="none" stroke="#26344d" stroke-width="7" stroke-linecap="round" stroke-linejoin="round"/>
  <path d="M17 41C10 41 5 37 5 31s4-10 10-11" fill="none" stroke="#df2c7c" stroke-width="4" stroke-linecap="round"/>
  <path d="M15 20C17 12 23 7 30 7s13 4 16 11" fill="none" stroke="#e6c928" stroke-width="4" stroke-linecap="round"/>
  <path d="M46 18h2c7 0 12 5 12 11s-5 12-12 12H17" fill="none" stroke="#2167f3" stroke-width="4" stroke-linecap="round"/>
  <circle cx="15" cy="20" r="2.5" fill="#eef1f6"/><circle cx="46" cy="18" r="2.5" fill="#eef1f6"/>
</svg>
