<svg xmlns="http://www.w3.org/2000/svg" viewBox="0 0 66 58"><rect x="1" y="1" width="64" height="56" rx="18" fill="#0b1120"/><path d="M15 37c-6 0-10-4-10-10s4-10 10-10h1C18 10 24 6 31 6c7 0 13 4 16 10 8 0 14 5 14 12 0 6-5 10-12 10H30c-5 0-8 3-8 7 0 3 3 5 7 5h24" fill="none" stroke="#eaf0fa" stroke-width="5" stroke-linecap="round" stroke-linejoin="round"/><path d="M16 17C18 10 24 6 31 6c7 0 13 4 16 10" fill="none" stroke="#2167f3" stroke-width="5" stroke-linecap="round"/><path d="M30 38c-5 0-8 3-8 7" fill="none" stroke="#df2c7c" stroke-width="5" stroke-linecap="round"/><path d="M42 50h11" fill="none" stroke="#e6c928" stroke-width="5" stroke-linecap="round"/></svg>
