<svg xmlns="http://www.w3.org/2000/svg" width="1200" height="630" viewBox="0 0 1200 630">
  <rect width="1200" height="630" fill="#eef1f6"/>
  <g fill="#cfd6e2"><circle cx="50" cy="50" r="2"/><circle cx="90" cy="50" r="2"/><circle cx="130" cy="50" r="2"/><circle cx="170" cy="50" r="2"/></g>
  <g transform="translate(70 68) scale(1.25)"><rect x="1" y="1" width="64" height="56" rx="18" fill="#0b1120"/><path d="M17 41C10 41 5 37 5 31s4-10 10-11C17 12 23 7 30 7s13 4 16 11h2c7 0 12 5 12 11s-5 12-12 12H17Z" fill="none" stroke="#26344d" stroke-width="7" stroke-linecap="round" stroke-linejoin="round"/><path d="M17 41C10 41 5 37 5 31s4-10 10-11" fill="none" stroke="#df2c7c" stroke-width="4" stroke-linecap="round"/><path d="M15 20C17 12 23 7 30 7s13 4 16 11" fill="none" stroke="#e6c928" stroke-width="4" stroke-linecap="round"/><path d="M46 18h2c7 0 12 5 12 11s-5 12-12 12H17" fill="none" stroke="#2167f3" stroke-width="4" stroke-linecap="round"/><circle cx="15" cy="20" r="2.5" fill="#eef1f6"/><circle cx="46" cy="18" r="2.5" fill="#eef1f6"/></g>
  <text x="70" y="285" fill="#0b1120" font-family="Arial, sans-serif" font-size="76" font-weight="700">Gabriele Floris</text>
  <text x="70" y="365" fill="#2167f3" font-family="Arial, sans-serif" font-size="48" font-weight="700">Portfolio</text>
  <text x="70" y="510" fill="#5f6879" font-family="Arial, sans-serif" font-size="28">Salesforce · Solution design · Delivery</text>
  <path d="M812 523C850 358 930 522 979 352S1105 320 1140 116" fill="none" stroke="#0b1120" stroke-width="18" stroke-linecap="round"/>
  <path d="M812 523C850 358 930 522 979 352S1105 320 1140 116" fill="none" stroke="#2167f3" stroke-width="5" stroke-linecap="round"/>
  <path d="M1041 344C1080 331 1117 262 1140 116" fill="none" stroke="#f02d4f" stroke-width="5" stroke-linecap="round" stroke-dasharray="10 12"/>
</svg>
